HIERARCHY
ROOT Hips
{
	OFFSET -0.491553 -0.224790 -0.236348
	CHANNELS 6 Xposition Yposition Zposition Zrotation Yrotation Xrotation 
	JOINT LHipJoint
	{
		OFFSET -0.227843 5.451948 3.548710
		CHANNELS 3 Zrotation Yrotation Xrotation
		JOINT LeftUpLeg
		{
			OFFSET 2.430820 4.328324 10.244855
			CHANNELS 3 Zrotation Yrotation Xrotation
			JOINT LeftLeg
			{
				OFFSET 5.143519 6.400506 3.966740
				CHANNELS 3 Zrotation Yrotation Xrotation
				JOINT LeftFoot
				{
					OFFSET 9.857249 3.115188 4.895071
					CHANNELS 3 Zrotation Yrotation Xrotation
					JOINT LeftToeBase
					{
						OFFSET -0.174365 3.916821 5.822150
						CHANNELS 3 Zrotation Yrotation Xrotation
						End Site
						{
							OFFSET 0.000000 0.000000 0.000000
						}
					}
				}
			}
		}
	}
	JOINT RHipJoint
	{
		OFFSET 6.996740 5.293785 6.716893
		CHANNELS 3 Zrotation Yrotation Xrotation
		JOINT RightUpLeg
		{
			OFFSET 4.391736 4.698749 4.973631
			CHANNELS 3 Zrotation Yrotation Xrotation
			JOINT RightLeg
			{
				OFFSET 4.983428 4.636428 4.604072
				CHANNELS 3 Zrotation Yrotation Xrotation
				JOINT RightFoot
				{
					OFFSET 3.925748 4.395162 4.895493
					CHANNELS 3 Zrotation Yrotation Xrotation
					JOINT RightToeBase
					{
						OFFSET 5.179639 4.885428 6.600905
						CHANNELS 3 Zrotation Yrotation Xrotation
						End Site
						{
							OFFSET 0.000000 0.000000 0.000000
						}
					}
				}
			}
		}
	}
	JOINT LowerBack
	{
		OFFSET 6.104880 6.231935 6.386693
		CHANNELS 3 Zrotation Yrotation Xrotation
		JOINT Spine
		{
			OFFSET 7.030995 6.901283 6.911144
			CHANNELS 3 Zrotation Yrotation Xrotation
			JOINT Spine1
			{
				OFFSET 6.941543 6.985343 6.733010
				CHANNELS 3 Zrotation Yrotation Xrotation
				JOINT Neck
				{
					OFFSET 6.628279 6.723731 6.635330
					CHANNELS 3 Zrotation Yrotation Xrotation
					JOINT Neck1
					{
						OFFSET 7.252057 7.298989 6.914113
						CHANNELS 3 Zrotation Yrotation Xrotation
						JOINT Head
						{
							OFFSET 7.757048 7.553379 7.467776
							CHANNELS 3 Zrotation Yrotation Xrotation
							End Site
							{
								OFFSET 0.000000 0.000000 0.000000
							}
						}
					}
				}
				JOINT LeftShoulder
				{
					OFFSET 6.768567 7.474796 6.453543
					CHANNELS 3 Zrotation Yrotation Xrotation
					JOINT LeftArm
					{
						OFFSET 6.301360 6.558362 6.914907
						CHANNELS 3 Zrotation Yrotation Xrotation
						JOINT LeftForeArm
						{
							OFFSET 6.471958 6.427226 6.820474
							CHANNELS 3 Zrotation Yrotation Xrotation
							JOINT LeftHand
							{
								OFFSET 6.244887 6.422156 6.391797
								CHANNELS 3 Zrotation Yrotation Xrotation
								JOINT LeftFingerBase
								{
									OFFSET 6.180916 5.881076 5.994465
									CHANNELS 3 Zrotation Yrotation Xrotation
									JOINT LeftHandIndex1
									{
										OFFSET 6.064975 6.267753 6.353149
										CHANNELS 3 Zrotation Yrotation Xrotation
										End Site
										{
											OFFSET 0.000000 0.000000 0.000000
										}
									}
								}
								JOINT LThumb
								{
									OFFSET 6.220228 6.120415 6.108636
									CHANNELS 3 Zrotation Yrotation Xrotation
									End Site
									{
										OFFSET 0.000000 0.000000 0.000000
									}
								}
							}
						}
					}
				}
				JOINT RightShoulder
				{
					OFFSET 6.033860 6.102162 6.081181
					CHANNELS 3 Zrotation Yrotation Xrotation
					JOINT RightArm
					{
						OFFSET 6.108163 6.625473 6.155488
						CHANNELS 3 Zrotation Yrotation Xrotation
						JOINT RightForeArm
						{
							OFFSET 5.931014 5.809982 6.149367
							CHANNELS 3 Zrotation Yrotation Xrotation
							JOINT RightHand
							{
								OFFSET 6.097213 6.145871 5.704690
								CHANNELS 3 Zrotation Yrotation Xrotation
								JOINT RightFingerBase
								{
									OFFSET 5.568552 5.895765 6.044122
									CHANNELS 3 Zrotation Yrotation Xrotation
									JOINT RightHandIndex1
									{
										OFFSET 5.976165 5.969492 5.972416
										CHANNELS 3 Zrotation Yrotation Xrotation
										End Site
										{
											OFFSET 0.000000 0.000000 0.000000
										}
									}
								}
								JOINT RThumb
								{
									OFFSET 5.937528 5.736197 6.468971
									CHANNELS 3 Zrotation Yrotation Xrotation
									End Site
									{
										OFFSET 5.979670 5.955458 5.827167
									}
								}
							}
						}
					}
				}
			}
		}
	}
}
MOTION
Frames: 9
Frame Time: 0.008333
2.407049 17.736658 0.641360 -0.795697 -1.016231 6.443226 -0.423217 1.229319 0.935979 -17.689215 -5.744668 -18.278688 7.260006 9.281178 29.527922 -0.317169 0.771136 6.840120 0.297829 -2.328482 -6.362160 -1.494311 -1.775255 0.367038 19.538912 7.252167 -19.100702 -3.013169 -10.638188 32.305012 0.122115 -3.779212 4.176444 -0.545499 0.868118 -4.260532 -0.127657 0.202878 0.821409 1.696384 0.142036 -2.674345 1.271438 0.153763 -3.081459 -5.694163 -2.792825 -13.323154 3.873334 -2.961605 13.180696 1.131129 -1.401336 7.670835 -1.174229 0.261105 -0.614872 -85.037666 2.632297 19.525694 13.130406 -24.128628 -4.788910 -0.522304 -0.456358 1.596970 19.176392 3.794156 1.339264 -7.125000 0.000000 0.000000 -9.627546 33.677994 -1.729021 1.578115 0.044561 -0.595897 80.810898 -5.004710 9.917098 -15.515356 23.961964 -5.346290 0.599168 -0.140539 2.918432 -21.665535 -2.962362 -2.622266 7.125000 0.000000 0.000000 3.947155 -34.051224 -3.803266
2.369051 17.736423 0.567792 -0.805133 -1.020781 6.425651 -0.454698 1.211863 0.917424 -17.731922 -5.738642 -18.272306 8.234230 9.289935 29.627773 -0.301788 0.858757 6.899885 0.305805 -2.306743 -6.342452 -1.503793 -1.779833 0.360692 19.520731 7.229776 -19.139091 -3.020843 -10.647528 32.276134 0.115987 -3.807910 4.127552 -0.551105 0.847434 -4.336335 -0.146458 0.187181 0.796969 1.686456 0.121915 -2.694425 1.252253 0.139498 -3.109182 -5.716918 -2.810201 -13.347447 3.863601 -2.982539 13.145702 1.111666 -1.419956 7.630599 -1.219216 0.218043 -0.628899 -85.126549 2.469092 19.264549 12.940102 -24.255255 -4.919644 -0.530456 -0.476118 1.314881 19.042439 3.583274 1.186054 -7.125000 0.000000 0.000000 -9.984722 33.332947 -2.201236 1.518380 0.000702 -0.612521 80.690308 -5.163629 9.576655 -15.686002 23.843430 -5.451537 0.586131 -0.155530 2.700390 -22.327593 -3.261290 -3.260286 7.125000 0.000000 0.000000 3.329577 -34.371227 -4.468489
2.390763 17.770302 1.744925 -0.532767 17.024796 6.981998 -0.008782 2.885846 18.761620 -15.400700 17.509735 4.641388 22.672062 13.654866 77.872978 -0.141771 5.213443 7.521526 1.694635 -2.093734 -5.664118 -1.260103 -1.667980 0.509957 20.072893 7.685529 -18.401087 -2.840652 -10.428296 33.001751 0.300311 -3.218731 4.866940 -0.469666 1.148373 -3.335238 0.066472 0.359164 1.067797 1.971726 1.123796 -2.321228 1.429410 0.269977 -2.685447 -4.006711 -0.886302 -13.061436 3.977522 -2.737177 13.473408 1.281414 -1.330495 7.819746 -1.038991 0.375990 -0.575806 -84.800346 3.073952 20.218803 13.639870 -23.815653 -4.464147 -0.502553 -0.407166 2.302459 19.525478 4.368264 1.777422 -7.125000 0.000000 0.000000 -8.626717 34.630619 -0.470829 1.724649 0.147455 -0.558026 81.066650 -4.683691 10.685153 -15.137993 24.240625 -5.107127 0.633246 -0.103617 3.489412 -19.909157 -2.149719 -0.870775 7.125000 0.000000 0.000000 5.673010 -33.188217 -2.025279
2.229969 17.750137 0.975345 -0.730832 -0.801027 6.542038 -0.381150 1.280416 10.134001 -17.575699 -5.517641 -17.981195 19.844995 9.394437 30.111084 -0.267969 1.334575 7.449650 1.394909 -2.069004 7.763449 -1.169419 -0.752877 2.239470 41.303886 20.092834 0.607098 -0.330919 -5.031319 57.018547 7.561266 10.717260 27.269905 1.528608 9.399420 24.680883 6.762975 5.597284 9.565882 5.687854 8.324239 4.545312 6.392855 3.192493 6.921208 4.007125 5.548965 -6.204906 8.560675 6.705578 24.234608 5.923688 0.105415 13.941062 3.418327 5.254372 1.696131 -75.325333 20.763889 57.966667 35.951958 -9.542868 10.441057 0.391821 1.802417 37.044777 37.603050 36.662151 28.705902 -7.125000 0.000000 0.000000 40.037003 84.565193 63.737461 9.042638 7.049822 1.597237 93.531258 8.547615 57.508514 6.229089 41.098763 5.904373 2.524913 2.089651 40.149155 85.846466 46.813095 106.253212 7.125000 0.000000 0.000000 103.076393 13.233253 75.906700
2.111443 17.746367 0.769167 -0.750872 -0.740720 6.664823 -0.283447 1.353134 16.519268 -17.366295 -5.287672 -17.645597 22.475338 9.454051 42.887424 -0.285541 1.378646 7.291168 0.353094 -2.170013 -5.738924 -1.279506 -1.669909 0.490809 20.119244 7.652076 -18.459093 -2.862371 -10.449048 32.947124 0.288838 -3.242454 4.743400 -0.478706 1.115617 -3.406485 0.046409 0.344172 1.044836 1.790051 0.326241 -2.498240 1.412955 0.250310 -2.833873 -5.487669 -2.621330 -13.088002 3.971754 -2.762531 13.426529 1.243032 -1.371771 7.827386 -1.029745 0.386835 -0.570300 -84.793411 3.094751 20.298195 13.715158 -23.783838 -4.428022 -0.500171 -0.399445 2.390463 19.568106 4.437237 1.837378 -7.125000 0.000000 0.000000 -8.575848 34.691025 -0.395555 1.731910 0.160463 -0.551997 81.108315 -4.637158 10.866178 -15.067346 24.295723 -5.054159 0.644824 -0.096043 3.596613 -19.597834 -2.006751 -0.541199 7.125000 0.000000 0.000000 5.931919 -33.070877 -1.814046
2.098532 17.744659 0.653190 -0.773126 -0.776777 6.631010 -0.320176 1.336082 15.550556 -17.437420 -5.350065 -17.749414 22.223476 9.423863 36.118977 -0.301453 1.325834 7.223372 0.347319 -2.188236 -5.780082 -1.290424 -1.671352 0.487302 20.115808 7.649893 -18.460104 -2.862082 -10.447851 32.952660 0.289997 -3.240008 4.739012 -0.479656 1.111704 -3.417456 0.042962 0.340601 1.038867 1.787641 0.321732 -2.502491 1.409481 0.248639 -2.837120 -5.488253 -2.620950 -13.085081 3.973621 -2.758909 13.428773 1.245588 -1.368796 7.838163 -1.017889 0.397354 -0.566828 -84.772537 3.136203 20.361372 13.759199 -23.756325 -4.398450 -0.498333 -0.394893 2.455219 19.599955 4.488875 1.874492 -7.125000 0.000000 0.000000 -8.487391 34.776234 -0.284209 1.745447 0.170350 -0.548209 81.134087 -4.603827 10.941325 -15.029770 24.324476 -5.028635 0.648349 -0.092091 3.655296 -19.413639 -1.920055 -0.356022 7.125000 0.000000 0.000000 6.102190 -32.988808 -1.639673
2.121417 17.754295 0.946096 -0.689166 -0.649828 6.778579 -0.202937 1.408758 17.642721 -17.252323 -5.152800 -17.655109 22.508358 9.418427 37.853790 -0.311971 1.364158 7.205760 0.346428 -2.207392 -5.826375 -1.323584 -1.682414 0.470011 20.087233 7.607858 -18.521246 -2.874923 -10.455994 32.928608 0.284842 -3.237015 4.741996 -0.476736 1.122830 -3.374243 0.052900 0.347394 1.049002 1.792541 0.669697 -2.492742 1.417256 0.260591 -2.815485 -4.859672 -1.543024 -13.053366 4.807513 -2.728236 13.466890 1.266821 -1.351667 7.871368 -0.984952 0.425466 -0.556721 -84.718994 3.238981 20.517796 13.878843 -23.679338 -4.316734 -0.493207 -0.381448 2.646171 19.693836 4.649584 1.991002 -7.125000 0.000000 0.000000 -8.187396 35.068165 0.104826 1.793090 0.205304 -0.535168 81.224709 -4.482178 11.216062 -14.895205 24.423382 -4.940908 0.659886 -0.079040 3.852664 -18.814821 -1.642270 0.228051 7.125000 0.000000 0.000000 6.645688 -32.716488 -1.064414
2.026538 17.732967 0.160995 -0.856889 -1.017419 6.433709 -0.514057 1.280322 9.322983 -17.581493 -5.479362 -18.071426 22.147676 9.440018 47.262856 -0.286801 3.354952 7.343059 0.523659 -2.175875 -5.724933 -1.300777 -1.669729 0.476349 20.101093 7.574188 -18.574038 -2.896466 -10.483286 32.801678 0.252795 -3.355974 4.559353 -0.496609 1.050822 -3.607856 0.001532 0.304749 0.983171 1.763505 0.274412 -2.556576 1.361465 0.220583 -2.911359 -5.551931 -2.672446 -13.154626 3.945091 -2.820238 13.339707 1.201503 -1.399009 7.776129 -1.078113 0.345115 -0.581584 -84.882561 2.939929 20.041576 13.539562 -23.906637 -4.550818 -0.507926 -0.416834 2.125143 19.440203 4.243993 1.687863 -7.125000 0.000000 0.000000 -8.905806 34.379097 -0.819764 1.679115 0.123796 -0.565707 81.010986 -4.767761 10.589530 -15.216002 24.194153 -5.150372 0.633019 -0.110565 3.377880 -20.267321 -2.300378 -1.176802 7.125000 0.000000 0.000000 5.299466 -33.401249 -2.508247
2.010014 17.735445 0.258827 -0.823298 -0.978991 6.527192 -0.441826 1.312686 9.854414 -17.546131 -5.435555 -18.078943 22.257534 9.402528 35.983330 -0.310642 1.501066 7.209248 0.344389 -2.226512 -5.792289 -1.329715 -1.679862 0.459868 20.090445 7.559360 -18.585915 -2.897750 -10.473855 32.823883 0.259945 -3.334842 4.579176 -0.492057 1.068567 -3.533858 0.020555 0.319259 1.007749 1.777202 0.304725 -2.526157 1.385406 0.241471 -2.872354 -5.516076 -2.641984 -13.110379 3.961404 -2.784311 13.386283 1.225969 -1.379233 7.809346 -1.046338 0.373006 -0.571636 -84.829407 3.041133 20.200443 13.661458 -23.827892 -4.468515 -0.502907 -0.404140 2.298867 19.524725 4.376256 1.780681 -7.125000 0.000000 0.000000 -8.680099 34.594227 -0.532422 1.714845 0.150309 -0.555868 81.079033 -4.674444 10.799981 -15.111776 24.270113 -5.082182 0.642018 -0.100275 3.536075 -19.795567 -2.077295 -0.706142 7.125000 0.000000 0.000000 5.780668 -33.158100 -2.001035
